<?xml version="1.0" encoding="utf-8"?>
<!-- Generator: Adobe Illustrator 28.2.0, SVG Export Plug-In . SVG Version: 6.00 Build 0)  -->
<svg version="1.1" id="Layer_1" xmlns="http://www.w3.org/2000/svg" xmlns:xlink="http://www.w3.org/1999/xlink" x="0px" y="0px"
	 viewBox="0 0 2500 1465" style="enable-background:new 0 0 2500 1465;" xml:space="preserve">
<style type="text/css">
	.st0{fill:#252F3E;}
	.st1{fill-rule:evenodd;clip-rule:evenodd;fill:#FF9900;}
	.st2{fill:#E8710A;}
	.st3{fill:#F9AB00;}
	.st4{fill:#706D6E;}
	.st5{fill:#F1511B;}
	.st6{fill:#80CC28;}
	.st7{fill:#00ADEF;}
	.st8{fill:#FBBC09;}
	.st9{fill:#77B900;}
	.st10{fill:#0F0F0F;}
	.st11{fill:#44497A;enable-background:new    ;}
	.st12{enable-background:new    ;}
	.st13{fill:#44497A;}
	.st14{fill:#666666;}
	.st15{fill:#232E4A;}
</style>
<path class="st0" d="M729.9,538.5c0,29.2,3.2,52.8,8.7,70.2c6.3,17.3,14.2,36.3,25.2,56.8c3.9,6.3,5.5,12.6,5.5,18.1
	c0,7.9-4.7,15.8-15,23.7l-49.7,33.1c-7.1,4.7-14.2,7.1-20.5,7.1c-7.9,0-15.8-3.9-23.7-11c-11-11.8-20.5-24.4-28.4-37.1
	c-7.9-13.4-15.8-28.4-24.4-46.5C546.2,725.4,469,761.7,375.9,761.7c-66.2,0-119.1-18.9-157.7-56.8s-58.3-88.3-58.3-151.4
	c0-67,23.7-121.4,71.7-162.4s112-61.5,193.2-61.5c26.8,0,54.4,2.4,83.6,6.3c29.2,3.9,59.1,10.2,90.7,17.3v-57.6
	c0-59.9-12.6-101.7-37.1-126.1c-25.2-24.4-67.8-36.3-128.5-36.3c-27.6,0-56,3.2-85.2,10.2c-29.2,7.1-57.6,15.8-85.2,26.8
	c-12.6,5.5-22.1,8.7-27.6,10.2s-9.5,2.4-12.6,2.4c-11,0-16.6-7.9-16.6-24.4v-38.6c0-12.6,1.6-22.1,5.5-27.6s11-11,22.1-16.6
	c27.6-14.2,60.7-26,99.3-35.5c38.6-10.2,79.6-15,123-15c93.8,0,162.4,21.3,206.6,63.9c43.4,42.6,65.4,107.2,65.4,194v255.5
	L729.9,538.5z M409.8,658.4c26,0,52.8-4.7,81.2-14.2s53.6-26.8,74.9-50.5c12.6-15,22.1-31.5,26.8-50.5c4.7-18.9,7.9-41.8,7.9-68.6
	v-33.1c-22.9-5.5-47.3-10.2-72.5-13.4c-25.2-3.2-49.7-4.7-74.1-4.7c-52.8,0-91.5,10.2-117.5,31.5c-26,21.3-38.6,51.2-38.6,90.7
	c0,37.1,9.5,64.7,29.2,83.6C346,648.9,373.6,658.4,409.8,658.4L409.8,658.4z M1042.9,743.5c-14.2,0-23.7-2.4-30-7.9
	c-6.3-4.7-11.8-15.8-16.6-30.7L811.1,95.4c-4.7-15.8-7.1-26-7.1-31.5c0-12.6,6.3-19.7,18.9-19.7h77.3c15,0,25.2,2.4,30.7,7.9
	c6.3,4.7,11,15.8,15.8,30.7l132.5,521.9l123-521.9c3.9-15.8,8.7-26,15-30.7s17.3-7.9,31.5-7.9h63.1c15,0,25.2,2.4,31.5,7.9
	c6.3,4.7,11.8,15.8,15,30.7l124.6,528.2l136.4-528.2c4.7-15.8,10.2-26,15.8-30.7c6.3-4.7,16.6-7.9,30.7-7.9h73.3
	c12.6,0,19.7,6.3,19.7,19.7c0,3.9-0.8,7.9-1.6,12.6c-0.8,4.7-2.4,11-5.5,19.7l-190,609.5c-4.7,15.8-10.2,26-16.6,30.7
	c-6.3,4.7-16.6,7.9-30,7.9h-67.8c-15,0-25.2-2.4-31.5-7.9c-6.3-5.5-11.8-15.8-15-31.5l-122.2-508.5l-121.4,507.7
	c-3.9,15.8-8.7,26-15,31.5s-17.3,7.9-31.5,7.9H1042.9z M2056.1,764.8c-41,0-82-4.7-121.4-14.2c-39.4-9.5-70.2-19.7-90.7-31.5
	c-12.6-7.1-21.3-15-24.4-22.1c-3.2-7.1-4.7-15-4.7-22.1v-40.2c0-16.6,6.3-24.4,18.1-24.4c4.7,0,9.5,0.8,14.2,2.4
	c4.7,1.6,11.8,4.7,19.7,7.9c26.8,11.8,56,21.3,86.7,27.6c31.5,6.3,62.3,9.5,93.8,9.5c49.7,0,88.3-8.7,115.1-26
	c26.8-17.3,41-42.6,41-74.9c0-22.1-7.1-40.2-21.3-55.2s-41-28.4-79.6-41L1988.3,425c-57.6-18.1-100.1-44.9-126.1-80.4
	c-26-34.7-39.4-73.3-39.4-114.3c0-33.1,7.1-62.3,21.3-87.5s33.1-47.3,56.8-64.7c23.7-18.1,50.5-31.5,82-41
	c31.5-9.5,64.7-13.4,99.3-13.4c17.3,0,35.5,0.8,52.8,3.2c18.1,2.4,34.7,5.5,51.2,8.7c15.8,3.9,30.7,7.9,44.9,12.6
	c14.2,4.7,25.2,9.5,33.1,14.2c11,6.3,18.9,12.6,23.7,19.7c4.7,6.3,7.1,15,7.1,26v37.1c0,16.6-6.3,25.2-18.1,25.2
	c-6.3,0-16.6-3.2-30-9.5c-44.9-20.5-95.4-30.7-151.4-30.7c-44.9,0-80.4,7.1-104.9,22.1c-24.4,15-37.1,37.8-37.1,70.2
	c0,22.1,7.9,41,23.7,56s44.9,30,86.7,43.4l112,35.5c56.8,18.1,97.8,43.4,122.2,75.7c24.4,32.3,36.3,69.4,36.3,110.4
	c0,33.9-7.1,64.7-20.5,91.5c-14.2,26.8-33.1,50.5-57.6,69.4c-24.4,19.7-53.6,33.9-87.5,44.2C2133.3,759.3,2096.3,764.8,2056.1,764.8
	L2056.1,764.8z"/>
<g>
	<path class="st1" d="M2205.1,1148c-259.4,191.6-636.3,293.3-960.3,293.3c-454.1,0-863.3-167.9-1172.4-447
		c-24.4-22.1-2.4-52,26.8-34.7c334.3,194,746.6,311.4,1173.2,311.4c287.8,0,603.9-59.9,894.9-182.9
		C2210.6,1068.4,2247.7,1116.5,2205.1,1148z"/>
	<path class="st1" d="M2313.1,1025c-33.1-42.6-219.2-20.5-303.5-10.2c-25.2,3.2-29.2-18.9-6.3-35.5
		c148.2-104.1,391.8-74.1,420.2-39.4c28.4,35.5-7.9,279.1-146.6,395.8c-21.3,18.1-41.8,8.7-32.3-15
		C2276,1242.6,2346.2,1066.8,2313.1,1025z"/>
</g>
</svg>
