<?xml version="1.0" encoding="utf-8"?>
<!-- Generator: Adobe Illustrator 28.2.0, SVG Export Plug-In . SVG Version: 6.00 Build 0)  -->
<svg version="1.1" id="Layer_1" xmlns="http://www.w3.org/2000/svg" xmlns:xlink="http://www.w3.org/1999/xlink" x="0px" y="0px"
	 viewBox="0 0 2500 1465" style="enable-background:new 0 0 2500 1465;" xml:space="preserve">
<style type="text/css">
	.st0{fill:#252F3E;}
	.st1{fill-rule:evenodd;clip-rule:evenodd;fill:#FF9900;}
	.st2{fill:#E8710A;}
	.st3{fill:#F9AB00;}
	.st4{fill:#706D6E;}
	.st5{fill:#F1511B;}
	.st6{fill:#80CC28;}
	.st7{fill:#00ADEF;}
	.st8{fill:#FBBC09;}
	.st9{fill:#77B900;}
	.st10{fill:#0F0F0F;}
	.st11{fill:#44497A;enable-background:new    ;}
	.st12{enable-background:new    ;}
	.st13{fill:#44497A;}
	.st14{fill:#666666;}
	.st15{fill:#232E4A;}
</style>
<g>
	<path class="st2" d="M779.3,609.3L631,460.5c-170.3,170.7-170.3,447,0,617.6l148.9-148.9C691.6,841,691.3,697.9,779.3,609.3z"/>
	<path class="st3" d="M631,460.5l148.3,148.9c88.4-88.5,231.8-88.6,320.3-0.2c0.1,0.1,0.1,0.1,0.2,0.2l107.9-184.8l0,0l-6.3-5l0,0
		C1027.4,289.7,784.6,307.1,631,460.5z"/>
	<path class="st3" d="M1208.2,1114L1208.2,1114l-108.5-184.2c-88.4,88.5-231.8,88.6-320.3,0.2c-0.1-0.1-0.1-0.1-0.2-0.2L631,1078.7
		c153.2,151.9,394.3,169.3,567.8,41l6.9-5.7"/>
	<path class="st3" d="M1249.9,460.5c-170.3,170.7-170.3,447,0,617.6l148.9-148.9c-88.5-88.5-88.5-232,0-320.5s232-88.5,320.5,0
		l149.5-148.3c-170.6-170.9-447.4-171.2-618.3-0.6C1250.3,460.1,1250.1,460.3,1249.9,460.5z"/>
	<path class="st2" d="M1868.8,460.5l-148.3,148.9c88.5,88.5,88.5,232,0,320.5c-88.5,88.5-232,88.5-320.5,0l0,0l-150.1,148.9
		c170.7,170.9,447.7,171,618.6,0.3C2039.3,908.3,2039.5,631.4,1868.8,460.5L1868.8,460.5z"/>
</g>
</svg>
