<?xml version="1.0" encoding="utf-8"?>
<!-- Generator: Adobe Illustrator 28.2.0, SVG Export Plug-In . SVG Version: 6.00 Build 0)  -->
<svg version="1.1" id="Layer_1" xmlns="http://www.w3.org/2000/svg" xmlns:xlink="http://www.w3.org/1999/xlink" x="0px" y="0px"
	 viewBox="0 0 2500 1465" style="enable-background:new 0 0 2500 1465;" xml:space="preserve">
<style type="text/css">
	.st0{fill:#252F3E;}
	.st1{fill-rule:evenodd;clip-rule:evenodd;fill:#FF9900;}
	.st2{fill:#E8710A;}
	.st3{fill:#F9AB00;}
	.st4{fill:#706D6E;}
	.st5{fill:#F1511B;}
	.st6{fill:#80CC28;}
	.st7{fill:#00ADEF;}
	.st8{fill:#FBBC09;}
	.st9{fill:#77B900;}
	.st10{fill:#0F0F0F;}
	.st11{fill:#44497A;enable-background:new    ;}
	.st12{enable-background:new    ;}
	.st13{fill:#44497A;}
	.st14{fill:#666666;}
	.st15{fill:#232E4A;}
</style>
<g id="g3347_1_" transform="translate(-2.8481388,0)">
	<path id="path61_1_" class="st11" d="M292.4,704.2l0.4,0.3c-13.5,22.9-21.5,49.8-21.5,78.6c0,49.3,22.8,94.3,60.5,122.2L214,1101.8
		L35.4,779.4l189.9-342.8h214.6C439.9,436.6,292.4,704.2,292.4,704.2z M616.6,1101.7L498.7,905.2c37.8-27.9,60.7-72.9,60.7-122.2
		c0-82.8-64.7-150.1-144-150.1c-17.9,0-34.9,3.6-50.7,9.8l113.6-206.1h127l189.9,342.8L616.6,1101.7z"/>
	<g class="st12">
		<path class="st13" d="M890.5,565.8c0-80.3,42.5-128.1,108-128.1c65.5,0,108,46.8,108,127.6c0,80.3-42.5,128.1-108,128.1
			C933.1,693.4,890.5,646.6,890.5,565.8z M1064.5,565.3c0-55.5-24.4-89.4-66-89.4c-41.6,0-66,33-66,89.9c0,55.5,24.4,88.9,66,88.9
			C1039.7,654.7,1064.5,621.2,1064.5,565.3z"/>
		<path class="st13" d="M1213.3,664.7v99.9l-41.6,19.6V443.4h41.6V464c14.3-14.3,32-26.3,62.6-26.3c62.1,0,100.9,49.2,100.9,127.6
			c0,81.3-41.6,128.1-100.9,128.1C1244.3,693.4,1226.2,680,1213.3,664.7z M1334.2,565.3c0-53.1-23.4-89.4-63.6-89.4
			c-24.9,0-45.4,12-57.4,33v112.8c13.9,18.2,32.5,33,57.4,33C1311.3,654.7,1334.2,623.2,1334.2,565.3z"/>
		<path class="st13" d="M1427,565.3c0-80.8,43.5-127.6,108.5-127.6c55,0,100.9,35.9,100.9,116.2c0,7.7-0.5,18.2-1.4,27.7h-165.4
			c3.3,44.9,30.1,74.1,66.9,74.1c18.6,0,37.3-6.7,52.6-22l25.3,28.2c-18.2,18.2-45.9,31.5-78.9,31.5
			C1468.6,693.4,1427,639.9,1427,565.3z M1594.3,546.2c-0.5-55.5-33-71.7-58.8-71.7c-35.4,0-64.1,21.5-66.5,71.7H1594.3z"/>
		<path class="st13" d="M1849.2,540c0-46.4-22.5-64-52.6-64c-32,0-56.4,15.8-56.4,63.1v148.7h-41.6V443.4h41.6v24.9
			c15.3-21,36.8-30.6,63.1-30.6c55.5,0,87.5,30.6,87.5,109.5v140.5h-41.6V540z"/>
	</g>
	<g class="st12">
		<path class="st14" d="M890.5,851.8h41.6v32c11-24.4,30.6-37.8,57.8-37.8c15.8,0,29.2,5.2,37.8,12.4l-6.2,39.2
			c-7.6-5.3-18.2-10.5-34.9-10.5c-23.4,0-54.5,15.8-54.5,71.2v137.7h-41.6V851.8z"/>
		<path class="st14" d="M1046.9,974.2c0-80.3,42.5-128.1,108-128.1c65.5,0,108,46.8,108,127.6c0,80.3-42.5,128.1-108,128.1
			C1089.4,1101.8,1046.9,1055,1046.9,974.2z M1220.9,973.7c0-55.5-24.4-89.4-66-89.4c-41.6,0-66,33-66,89.9
			c0,55.5,24.4,88.9,66,88.9C1196,1063.1,1220.9,1029.6,1220.9,973.7z"/>
		<path class="st14" d="M1354.3,1075.1v21h-41.6V770.6l41.6-19.6v121.9c13.9-15.3,35.8-26.8,61.2-26.8
			c60.7,0,101.3,47.3,101.3,127.6c0,82.7-37.8,128.1-99.9,128.1C1385.9,1101.8,1368.7,1088.9,1354.3,1075.1z M1474.3,973.7
			c0-57.4-21.5-89.4-63.1-89.4c-27.7,0-48.7,18.6-56.9,32.5v113.3c12,20.6,33.9,33,56.9,33
			C1453.3,1063.1,1474.3,1028.7,1474.3,973.7z"/>
		<path class="st14" d="M1551.8,974.2c0-80.3,42.5-128.1,108-128.1c65.5,0,108,46.8,108,127.6c0,80.3-42.5,128.1-108,128.1
			C1594.3,1101.8,1551.8,1055,1551.8,974.2z M1725.8,973.7c0-55.5-24.4-89.4-66-89.4c-41.6,0-66,33-66,89.9
			c0,55.5,24.4,88.9,66,88.9C1700.9,1063.1,1725.8,1029.6,1725.8,973.7z"/>
		<path class="st14" d="M1832,1043.5V888.1h-39.7v-36.3h39.7V771l41.6-20.1v100.9h60.2v36.3h-60.2v141.5c0,18.6,3.8,33.5,25.3,33.5
			c13.9,0,25.8-6.2,36.3-12.9l-4.8,40.6c-12.9,6.7-27.7,11-46.9,11C1846.8,1101.8,1832,1077.9,1832,1043.5z"/>
		<path class="st14" d="M1976.4,781.6c0-14.8,11.5-26.8,25.8-26.8c14.8,0,26.3,12,26.3,26.8c0,14.3-11.5,25.8-26.3,25.8
			C1987.9,807.4,1976.4,795.9,1976.4,781.6z M1981.6,851.8h41.6v244.3h-41.6V851.8z"/>
		<path class="st14" d="M2073,974.2c0-80.3,39.2-128.1,103.2-128.1c40.6,0,71.7,18.6,85.6,56.9l-39.2,14.3
			c-7.2-18.6-22-32.5-45.9-32.5c-41.6,0-61.2,34.4-61.2,89.4c0,55.5,20.5,88.4,59.7,88.4c24.4,0,42.5-13.4,49.7-36.3l38.7,12.9
			c-12,40.1-44.5,62.6-89.4,62.6C2112.2,1101.8,2073,1055,2073,974.2z"/>
		<path class="st14" d="M2294.8,1060.7l29.6-25.3c12.4,13.4,33.5,29.2,59.7,29.2c25.8,0,45.4-9.6,45.4-31.1
			c0-24.4-27.3-35.4-55.9-46.4c-44.9-16.7-75.5-36.3-75.5-76.5s35.4-64.5,82.2-64.5c37.3,0,64.5,15.8,82.2,36.8l-28.7,23.9
			c-10.5-11-27.7-23.4-54-23.4c-24.9,0-40.6,10-40.6,27.3c0,20.5,24.4,29.6,51.6,40.6c44.5,15.8,79.3,34.9,79.3,81.3
			c0,44-33.9,69.3-87,69.3C2347.4,1101.8,2313.9,1085.1,2294.8,1060.7z"/>
	</g>
</g>
</svg>
