<?xml version="1.0" encoding="utf-8"?>
<!-- Generator: Adobe Illustrator 28.2.0, SVG Export Plug-In . SVG Version: 6.00 Build 0)  -->
<svg version="1.1" id="Layer_1" xmlns="http://www.w3.org/2000/svg" xmlns:xlink="http://www.w3.org/1999/xlink" x="0px" y="0px"
	 viewBox="0 0 2500 1465" style="enable-background:new 0 0 2500 1465;" xml:space="preserve">
<style type="text/css">
	.st0{fill:#252F3E;}
	.st1{fill-rule:evenodd;clip-rule:evenodd;fill:#FF9900;}
	.st2{fill:#E8710A;}
	.st3{fill:#F9AB00;}
	.st4{fill:#706D6E;}
	.st5{fill:#F1511B;}
	.st6{fill:#80CC28;}
	.st7{fill:#00ADEF;}
	.st8{fill:#FBBC09;}
	.st9{fill:#77B900;}
	.st10{fill:#0F0F0F;}
	.st11{fill:#44497A;enable-background:new    ;}
	.st12{enable-background:new    ;}
	.st13{fill:#44497A;}
	.st14{fill:#666666;}
	.st15{fill:#232E4A;}
</style>
<path class="st10" d="M1111.9,944.3v0.2c-1.5,0-3,0.2-4.5,0.2s-3-0.2-4.5-0.2c-88.5,0-143.3,55.3-143.3,144.1v43.6
	c0,85.5,55.5,138.6,144.6,138.6c1.8,0,3.6,0,5.5-0.2c1.2,0,2.2,0.2,3.5,0.2c59.8,0,101.4-21.8,127.9-67l-52.8-30.5
	c-17.6,26-41.2,45.6-74.9,45.6c-45.1,0-72.2-27.8-72.2-74.6V1132h209.3v-51.6C1250.5,997.6,1196.2,944.3,1111.9,944.3L1111.9,944.3z
	 M1107.4,995.1c41.2,2,66,29.3,66,74.1v12.4H1041v-7.2C1041,1024.9,1064.5,997.1,1107.4,995.1L1107.4,995.1z M782.3,944.5
	c-39.4,0-73.4,16.4-91.2,43.6l-4.5,6.9V952h-74.9v418.8h78.6v-146.3l4.5,6.7c16.9,25,49.8,39.9,88.3,39.9h2h1.7
	c64.7,0,129.9-42.2,129.9-136.6v-53.1c0-67.9-40.2-136.6-130.4-136.6l-0.5-0.2h-1.7L782.3,944.5z M764,1003.6
	c45.6,0.7,73.9,31.7,73.9,81.3v45.6c0,49.6-28.5,80.3-74.6,81.3c-42.9-0.7-72.9-33.5-72.9-80.1v-46.9
	C690.3,1037.8,720.6,1004.5,764,1003.6L764,1003.6z M1782.6,841.1l-151.3,422.5h85.1l29-90.5h165.1v1l29,89.8h85.1l-151.5-422.5
	h-8.9l-0.2-0.2L1782.6,841.1z M1827.8,913.8l63.2,199.6h-127L1827.8,913.8z M2328.9,900.7v-59.5h-259.4v59.5h91v303h-91v59.5h259.4
	v-59.5h-91v-303H2328.9z M1475.4,944.6h-2.2h-1.2c-43.9,0-75.1,14.9-90.5,43.4l-4.7,8.7V952h-74.9v311.4h78.6V1078
	c0-43.6,23.6-68.7,64.2-69.4c38.9,0.7,61.3,25.3,61.3,67.7v187.2h78.6v-200.6c0-74.1-40.7-118.3-108.9-118.3L1475.4,944.6z
	 M359,832.5c-115.8,0-188,72.2-188,188.5v62.7c0,116.3,71.9,188.5,188,188.5h1.7h1.7c115.8,0,188-72.2,188-188.5v-62.7
	c0-116.3-72.2-188.5-188-188.5h-1.7H359z M360.8,895.5c68.9,0.7,108.6,44.9,108.6,121.3v71.4c0,76.4-39.7,120.5-108.6,121.3
	c-68.9-0.7-108.6-44.9-108.6-121.3v-71.4C252.2,940.3,291.8,896.2,360.8,895.5z M1160.8,63.2c-80.1,0-151.3,51.6-176.1,127.7
	c-51.5,10.6-95.9,42.9-122,88.5c-40.2,69.4-31,156.7,22.8,216.2c-16.6,49.8-10.9,104.4,15.6,149.5c39.9,69.7,120.3,105.4,198.9,88.8
	c34.8,39.3,84.9,61.7,137.4,61.5c80.1,0,151.3-51.6,176.1-127.7c51.6-10.7,96-42.9,121.8-88.5c40.4-69.4,31.2-156.7-22.6-216.2v-0.2
	c16.6-49.8,10.9-104.4-15.6-149.8c-39.9-69.4-120.3-105.1-198.6-88.5C1263.4,85.2,1213.3,62.9,1160.8,63.2z M1160.8,110.8l-0.2,0.2
	c32.2,0,63.2,11.2,88,31.7c-1,0.5-3,1.7-4.5,2.5l-145.8,84.1c-7.4,4.2-11.9,12.2-11.9,20.8v197.4l-62.7-36.2V248.2
	C1023.6,172.4,1085,110.9,1160.8,110.8L1160.8,110.8z M1336.4,168.3c49.2-0.1,94.7,26.1,119.2,68.8c15.9,27.8,21.8,60.3,16.4,91.7
	c-1-0.7-3-1.7-4.2-2.5L1322,242c-7.5-4.2-16.6-4.2-24,0l-170.9,98.7v-72.4l141.1-81.6C1288.9,174.7,1312.5,168.3,1336.4,168.3
	L1336.4,168.3z M975.8,243.2v173.3c0,8.7,4.5,16.4,11.9,20.8l170.6,98.4l-63,36.4l-140.8-81.3c-65.5-38-87.9-121.9-50.1-187.5
	C920.4,275.7,945.7,254.4,975.8,243.2L975.8,243.2z M1302.6,286.1l141.1,81.3c65.7,37.9,88,121.8,50.1,187.5l0.2,0.2
	c-16.1,27.8-41.4,49.1-71.4,60V441.8c0-8.7-4.5-16.6-11.9-20.8l-170.8-98.7L1302.6,286.1z M1199,345.9l71.9,41.7v83.1l-71.9,41.7
	l-71.9-41.7v-83.1L1199,345.9z M1312.1,411.4l62.7,36.2v162.9c0,75.9-61.5,137.4-137.1,137.4v-0.2c-32,0-63.2-11.2-87.8-31.7
	c1-0.5,3.2-1.7,4.5-2.5l145.8-84.1c7.4-4.2,12.2-12.2,11.9-20.8L1312.1,411.4z M1271.1,518v72.4L1130,671.7
	c-65.7,37.7-149.5,15.4-187.5-50.1h0.2c-16.1-27.5-21.8-60.3-16.4-91.7c1,0.7,3,1.7,4.2,2.5l145.8,84.3c7.5,4.2,16.6,4.2,24,0
	L1271.1,518z"/>
</svg>
