<?xml version="1.0" encoding="utf-8"?>
<!-- Generator: Adobe Illustrator 28.2.0, SVG Export Plug-In . SVG Version: 6.00 Build 0)  -->
<svg version="1.1" id="Layer_1" xmlns="http://www.w3.org/2000/svg" xmlns:xlink="http://www.w3.org/1999/xlink" x="0px" y="0px"
	 viewBox="0 0 2500 1465" style="enable-background:new 0 0 2500 1465;" xml:space="preserve">
<style type="text/css">
	.st0{fill:#252F3E;}
	.st1{fill-rule:evenodd;clip-rule:evenodd;fill:#FF9900;}
	.st2{fill:#E8710A;}
	.st3{fill:#F9AB00;}
	.st4{fill:#706D6E;}
	.st5{fill:#F1511B;}
	.st6{fill:#80CC28;}
	.st7{fill:#00ADEF;}
	.st8{fill:#FBBC09;}
	.st9{fill:#77B900;}
	.st10{fill:#0F0F0F;}
	.st11{fill:#44497A;enable-background:new    ;}
	.st12{enable-background:new    ;}
	.st13{fill:#44497A;}
	.st14{fill:#666666;}
	.st15{fill:#232E4A;}
</style>
<g id="g10" transform="matrix(0.27658046,0,0,-0.27658046,7.5569957,44.098468)">
	<g id="g12" transform="scale(0.1)">
		<path id="path14" class="st15" d="M10446-17144.7c0-1255.2-984.7-2272.8-2199.4-2272.8c-1214.4,0-2199.2,1017.6-2199.2,2272.8
			c0,1254.9,984.8,2272.9,2199.2,2272.9C9461.3-14871.8,10446-15889.7,10446-17144.7"/>
		<path id="path16" class="st15" d="M10446-24889.9c0-1255.2-984.7-2272.8-2199.4-2272.8c-1214.4,0-2199.2,1017.6-2199.2,2272.8
			s984.8,2272.8,2199.2,2272.8C9461.3-22617.2,10446-23634.8,10446-24889.9"/>
		<path id="path18" class="st15" d="M10446-32635.1c0-1255-984.7-2272.9-2199.4-2272.9c-1214.4,0-2199.2,1017.8-2199.2,2272.9
			c0,1254.9,984.8,2272.8,2199.2,2272.8C9461.3-30362.4,10446-31380.2,10446-32635.1"/>
		<path id="path20" class="st15" d="M18120.5-24889.9c0-1255.2-984.8-2272.8-2199.4-2272.8c-1214.5,0-2199.3,1017.6-2199.3,2272.8
			s984.8,2272.8,2199.3,2272.8C17135.7-22617.2,18120.5-23634.8,18120.5-24889.9"/>
		<path id="path22" class="st15" d="M18120.5-17144.7c0-1255.2-984.8-2272.8-2199.4-2272.8c-1214.5,0-2199.3,1017.6-2199.3,2272.8
			c0,1254.9,984.8,2272.9,2199.3,2272.9C17135.7-14871.8,18120.5-15889.7,18120.5-17144.7"/>
		<path id="path24" class="st15" d="M25794.9-24889.9c0-1255.2-984.7-2272.8-2199.4-2272.8c-1214.5,0-2199.2,1017.6-2199.2,2272.8
			s984.7,2272.8,2199.2,2272.8C24810.2-22617.2,25794.9-23634.8,25794.9-24889.9"/>
		<path id="path26" class="st15" d="M25794.9-17144.7c0-1255.2-984.7-2272.8-2199.4-2272.8c-1214.5,0-2199.2,1017.6-2199.2,2272.8
			c0,1254.9,984.7,2272.9,2199.2,2272.9C24810.2-14871.8,25794.9-15889.7,25794.9-17144.7"/>
		<path id="path28" class="st15" d="M25794.9-32635.1c0-1255-984.7-2272.9-2199.4-2272.9c-1214.5,0-2199.2,1017.8-2199.2,2272.9
			c0,1254.9,984.7,2272.8,2199.2,2272.8C24810.2-30362.4,25794.9-31380.2,25794.9-32635.1"/>
		<path id="path30" class="st15" d="M18120.5-32635.1c0-1255-984.8-2272.9-2199.4-2272.9c-1214.5,0-2199.3,1017.8-2199.3,2272.9
			c0,1254.9,984.8,2272.8,2199.3,2272.8C17135.7-30362.4,18120.5-31380.2,18120.5-32635.1"/>
		<path id="path32" class="st15" d="M40609.2-17741h-5621.9v-6408.3h5621.9c1929.2,0,3279.5,1025.4,3279.5,3189.9
			C43888.7-18880.3,42565.9-17741,40609.2-17741z M42565.9-26712.5l3940.9-8145.6h-3334.5L39341.6-26969h-4354.4V-34858h-2838.5
			v19936.7h8460.4c3362.3,0,6200.7-1851.4,6200.7-5952.6C46809.9-24063.8,45184.1-26028.8,42565.9-26712.5"/>
		<path id="path34" class="st15" d="M58523.4-17598.6c-3362.3,0-5208.7-2819.6-5208.7-7291.1c0-4471.6,1846.4-7291.1,5208.7-7291.1
			c3389.9,0,5236.3,2819.5,5236.3,7291.1C63759.7-20418.2,61913.3-17598.6,58523.4-17598.6z M58523.4-35171.4
			c-4988.1,0-8157.5,4243.8-8157.5,10281.7c0,6037.9,3169.3,10281.5,8157.5,10281.5c5015.7,0,8184.9-4243.6,8184.9-10281.5
			C66708.3-30927.6,63539.2-35171.4,58523.4-35171.4"/>
		<path id="path36" class="st15" d="M76658-35171.4c-2811.3,0-5236.3,1253.1-6862.3,3218.3l2067.1,2079.2
			c1295.2-1452.6,3196.7-2364,5015.5-2364c2700.7,0,3996.1,968.4,3996.1,2905c0,1538-1129.6,2307-4354.4,3304
			c-4078.6,1253-6035.2,2306.8-6035.2,5866.9c0,3446.2,2810.9,5553.8,6365.9,5553.8c2618.1,0,4602.3-996.8,6310.9-2705.6
			l-2039.1-2136.1c-1212.6,1281.7-2590.5,1908.3-4491.9,1908.3c-2260.3,0-3224.7-1139.3-3224.7-2477.9
			c0-1395.6,881.9-2079.2,4216.6-3104.4c3802.9-1196.2,6173.3-2449.4,6173.3-6009.5C83795.9-32722.1,81591.2-35171.4,76658-35171.4"
			/>
	</g>
</g>
</svg>
