<?xml version="1.0" encoding="utf-8"?>
<!-- Generator: Adobe Illustrator 28.2.0, SVG Export Plug-In . SVG Version: 6.00 Build 0)  -->
<svg version="1.1" id="Layer_1" xmlns="http://www.w3.org/2000/svg" xmlns:xlink="http://www.w3.org/1999/xlink" x="0px" y="0px"
	 viewBox="0 0 482.5 220.1" style="enable-background:new 0 0 482.5 220.1;" xml:space="preserve">
<style type="text/css">
	.st0{fill:#808184;}
	.st1{fill-rule:evenodd;clip-rule:evenodd;fill:#DB232C;}
	.st2{fill-rule:evenodd;clip-rule:evenodd;fill:#A5CD39;}
	.st3{fill-rule:evenodd;clip-rule:evenodd;fill:#0094D9;}
	.st4{fill:#404041;}
	.st5{fill:#0094D9;}
	.st6{fill:none;stroke:#A5CD39;stroke-width:0.22;stroke-miterlimit:2.61;}
	.st7{fill:none;stroke:#0094D9;stroke-width:0.22;stroke-miterlimit:2.61;}
	.st8{fill:none;stroke:#DB232C;stroke-width:0.22;stroke-miterlimit:2.61;}
</style>
<g>
	<rect x="180.6" y="68.2" class="st0" width="197" height="1.7"/>
	<path class="st1" d="M132.1,34.9c-9.6,11.8-20.1,22.8-31.4,32.9c-4.7,4.2-9.7,8.1-14.9,11.8c-1.5,1.1-2,3.2-3.4,4.2
		c-3,1.9-7,2.5-10,4l13.9,25.2c18.6-9.9,44.3-16.9,77-21.2c-0.6-2.9-2-5.5-4.1-7.6c-17.3,4.3-37.1,6.7-59.3,7
		c-2.8-0.2-3.2-1.6-1.5-4.1c6.9-12.5,19.5-27.6,37.8-45.4C135.4,38.1,134.1,35.8,132.1,34.9"/>
	<path class="st1" d="M138.3,66.9c3.2,5.7,1.3,12.9-4.4,16.1s-12.9,1.3-16.1-4.4c-3.2-5.7-1.3-12.9,4.4-16.1c0,0,0,0,0,0
		C127.9,59.3,135.1,61.2,138.3,66.9C138.3,66.9,138.3,66.9,138.3,66.9"/>
	<path class="st2" d="M31.1,34.9c21.3,25.6,41.2,43.2,59.7,52.9L77,112.9C58.4,103,32.7,96,0,91.7c0.6-2.9,2-5.5,4.1-7.6
		c17.3,4.3,37.1,6.7,59.3,7c2.8-0.2,3.3-1.6,1.5-4.1C58,74.5,45.4,59.4,27,41.6C27.8,38.1,29.1,35.9,31.1,34.9"/>
	<path class="st2" d="M28,69.4c3.3-5.6,10.6-7.5,16.2-4.2c5.6,3.3,7.5,10.6,4.2,16.2C45,87,37.8,88.9,32.2,85.5c0,0,0,0,0,0
		C26.5,82.2,24.7,75,28,69.4C28,69.4,28,69.4,28,69.4"/>
	<path class="st3" d="M114.1,25.5c-15.3,39.2-20.6,70.3-15.7,93.4c11.2,36.9,17.9,55.9,20.1,57.1c-3.4,1.7-6.9,1.5-10.5-0.8
		c-7.5-27.3-15.8-46.4-25-57.2c-2.1-0.3-4,1.5-5.7,5.3C69.8,135,62.4,153,55.1,177.2c-5.1,1.3-8.2,0.7-9.3-1.6
		c11.4-25.9,18.8-48.2,22.1-67c0.7-22-5.4-49.6-18.5-82.9c2.8-0.9,5.8-0.9,8.6-0.1c4.6,17.3,12.1,35.7,22.5,55.3
		c1.6,2.3,3,2.1,4.3-0.7c7.6-12,14.8-30.4,21.5-55C109.7,24.2,112.3,24.3,114.1,25.5"/>
	<path class="st3" d="M82,36.5c6.5,0,11.8,5.3,11.8,11.8c0,6.5-5.3,11.8-11.8,11.8c-6.5,0-11.8-5.3-11.8-11.8c0,0,0,0,0,0
		C70.2,41.8,75.5,36.5,82,36.5"/>
	<path class="st4" d="M309.4,78.7h4.4v28.4h-4.4V78.7z M304.7,96.2v11h-3.9l-0.1-3.1c-0.6,1.1-1.5,2-2.5,2.7c-1,0.6-2.1,0.9-3.3,0.9
		c-1.6,0.1-3.1-0.6-4.2-1.7c-1.1-1.2-1.6-2.8-1.6-4.4c-0.1-1.9,0.7-3.7,2.3-4.8c1.5-1.1,3.8-1.6,6.8-1.6h2.3v-0.3
		c0.1-1.1-0.3-2.2-1.1-3c-0.8-0.8-2-1.2-3.1-1.1c-0.8,0-1.6,0.1-2.4,0.4c-0.9,0.3-1.7,0.7-2.5,1.2l-0.1-3.5c1-0.4,2-0.8,3-1
		c1-0.2,2-0.3,3-0.3c2.6,0,4.5,0.7,5.6,2.1C304.1,91,304.7,93.1,304.7,96.2z M298.9,98c-1.4-0.1-2.8,0.2-4,0.8
		c-0.9,0.5-1.4,1.5-1.4,2.5c0,0.7,0.3,1.5,0.8,2c0.5,0.5,1.3,0.8,2,0.8c1.2,0,2.3-0.5,3-1.4c0.8-1.1,1.2-2.4,1.2-3.7v-1L298.9,98z
		 M285.7,95.7v11.5h-4.4V96.8c0.1-1.4-0.2-2.7-0.8-3.9c-0.6-0.9-1.5-1.3-2.5-1.3c-1.2,0-2.3,0.6-2.9,1.6c-0.8,1.3-1.2,2.9-1.1,4.4
		v9.6h-4.4V87.9h4v3.5c0.5-1.2,1.4-2.2,2.5-2.9c1.1-0.7,2.3-1,3.6-1c1.8-0.1,3.5,0.7,4.6,2.1C285.3,91.4,285.8,93.5,285.7,95.7z
		 M256.5,87.4c2.5-0.1,5,0.9,6.7,2.7c1.7,2.1,2.6,4.7,2.4,7.4c0.1,2.7-0.7,5.3-2.4,7.4c-3.7,3.6-9.6,3.6-13.3,0
		c-1.7-2.1-2.6-4.7-2.4-7.4c-0.2-2.7,0.7-5.3,2.4-7.4C251.5,88.3,253.9,87.3,256.5,87.4z M256.5,91c-1.3,0-2.5,0.7-3.2,1.8
		c-0.9,1.4-1.3,3-1.2,4.7c-0.1,1.7,0.4,3.3,1.2,4.7c1.1,1.8,3.5,2.3,5.3,1.2c0.5-0.3,0.9-0.7,1.2-1.2c0.9-1.4,1.3-3,1.2-4.7
		c0.1-1.7-0.3-3.3-1.2-4.7C259,91.6,257.8,91,256.5,91z M239.1,79.3h4.4v4.8h-4.4V79.3z M239.1,87.9h4.4v19.3h-4.4V87.9z
		 M231.5,81.6v6.3h4.1v3.6h-4.1v8.4c-0.1,1.1,0.1,2.1,0.6,3.1c0.4,0.6,1.2,1,1.9,0.9c0.3,0,0.5,0,0.8-0.1c0.3-0.1,0.6-0.1,0.9-0.2
		l0.1,3.5c-0.5,0.1-1,0.3-1.5,0.3c-0.5,0.1-1,0.1-1.5,0.1c-2,0-3.5-0.6-4.4-1.7s-1.3-3-1.3-5.6v-8.7h-3.4v-3.6h3.6v-4.7L231.5,81.6z
		 M220.8,96.2v11H217l-0.1-3.1c-0.6,1.1-1.5,2-2.5,2.7c-1,0.6-2.1,0.9-3.3,0.9c-1.6,0.1-3.1-0.6-4.1-1.7c-1.1-1.2-1.6-2.8-1.6-4.4
		c-0.1-1.9,0.7-3.7,2.3-4.8c1.5-1.1,3.7-1.6,6.8-1.6h2.2v-0.3c0.1-1.1-0.3-2.2-1.1-3c-0.8-0.8-2-1.2-3.1-1.1c-0.8,0-1.6,0.1-2.4,0.4
		c-0.9,0.3-1.7,0.7-2.5,1.2l-0.1-3.5c1-0.4,2-0.8,3-1c1-0.2,2-0.3,3-0.3c2.6,0,4.4,0.7,5.6,2.1C220.3,91,220.8,93.1,220.8,96.2z
		 M215.1,98c-1.4-0.1-2.8,0.2-4,0.8c-0.9,0.5-1.4,1.5-1.4,2.5c0,0.7,0.3,1.5,0.8,2c0.5,0.5,1.3,0.8,2,0.8c1.2,0,2.3-0.5,3-1.4
		c0.8-1.1,1.2-2.4,1.2-3.7v-1L215.1,98z M181.9,80.8h5.8l8.6,18.4c0.2,0.5,0.5,1.2,0.7,2s0.5,1.8,0.8,2.8c-0.2-1.2-0.3-2.4-0.4-3.4
		s-0.1-1.9-0.1-2.6V80.8h4.2v26.4h-5.7l-8.9-18.9c-0.3-0.6-0.5-1.2-0.7-1.8c-0.2-0.8-0.5-1.7-0.7-2.7c0.2,1.6,0.3,2.9,0.4,4
		c0.1,1.1,0.1,1.9,0.1,2.3v17.1h-4.2L181.9,80.8z"/>
	<path class="st5" d="M477.4,115.6v6.6h4.3v3.8h-4.3v8.8c-0.1,1.1,0.1,2.2,0.6,3.2c0.4,0.7,1.2,1.1,2,1c0.3,0,0.5,0,0.8-0.1
		c0.3-0.1,0.6-0.1,0.9-0.3l0.1,3.6c-0.5,0.2-1,0.3-1.6,0.3c-0.5,0.1-1.1,0.1-1.6,0.1c-2.1,0-3.6-0.6-4.5-1.8
		c-0.9-1.2-1.4-3.1-1.4-5.9V126h-3.5v-3.8h3.8v-4.9L477.4,115.6z M466.2,130.3v12h-4.6v-10.8c0.1-1.4-0.2-2.8-0.9-4.1
		c-0.6-0.9-1.6-1.4-2.6-1.3c-1.2,0-2.4,0.6-3.1,1.7c-0.8,1.4-1.2,3-1.1,4.6v10h-4.6v-20.2h4.2v3.6c0.6-1.3,1.5-2.3,2.6-3.1
		c1.1-0.7,2.4-1.1,3.7-1.1c1.9-0.1,3.6,0.7,4.8,2.2C465.7,125.3,466.2,127.5,466.2,130.3z M441.6,130.4c0-1.4-0.5-2.8-1.3-4
		c-0.6-0.9-1.7-1.4-2.8-1.4c-1.1,0-2.2,0.5-2.9,1.4c-0.9,1.2-1.3,2.6-1.4,4H441.6z M445.8,132v1.6h-12.5c0,1.5,0.7,2.9,1.7,4
		c1.1,1,2.6,1.5,4.1,1.5c0.9,0,1.8-0.1,2.7-0.4c0.9-0.2,1.7-0.6,2.5-1.1v4c-0.9,0.4-1.8,0.7-2.8,0.9c-1.1,0.2-2.1,0.3-3.2,0.3
		c-2.7,0.1-5.2-0.9-7-2.9c-1.7-1.9-2.5-4.6-2.5-8c-0.1-2.7,0.7-5.3,2.4-7.4c1.6-1.9,3.9-2.9,6.4-2.8c2.3-0.1,4.6,0.9,6,2.7
		C445,126.2,445.8,128.7,445.8,132L445.8,132z M412.8,126c0.6-1.3,1.5-2.4,2.6-3.2c1.1-0.7,2.4-1.1,3.7-1.1c1.8-0.1,3.4,0.8,4.4,2.2
		c1.1,1.9,1.7,4.1,1.5,6.4v12h-4.6v-10.9c0.1-1.4-0.2-2.7-0.8-4c-0.5-0.8-1.4-1.4-2.3-1.3c-1.2,0-2.3,0.6-3,1.7
		c-0.8,1.4-1.2,3-1.1,4.6v10h-4.6v-10.9c0.1-1.4-0.2-2.8-0.8-4c-0.5-0.9-1.4-1.4-2.4-1.3c-1.2,0-2.4,0.6-3,1.7
		c-0.8,1.4-1.2,3-1.1,4.6v10h-4.5v-20.2h4.1v3.6c0.6-1.2,1.4-2.3,2.6-3.1c1.1-0.7,2.3-1,3.6-1c1.2,0,2.3,0.4,3.3,1.1
		C411.6,123.7,412.4,124.8,412.8,126L412.8,126z M383.9,125.7c-1.3,0-2.6,0.6-3.4,1.8c-0.9,1.4-1.3,3.1-1.2,4.8
		c-0.1,1.7,0.3,3.3,1.2,4.8c1.1,1.8,3.4,2.3,5.2,1.2c0.5-0.3,0.9-0.7,1.2-1.2c0.9-1.5,1.3-3.2,1.2-4.9c0.1-1.6-0.3-3.3-1.1-4.7
		C386.4,126.3,385.2,125.6,383.9,125.7L383.9,125.7z M379.3,139.3v11.3h-4.6v-28.4h4.1v3.8c0.6-1.3,1.5-2.4,2.7-3.2
		c3-2,7.1-1.2,9.2,1.7c1.5,2.2,2.2,4.9,2.1,7.6c0.1,2.7-0.6,5.4-2.1,7.7c-1.2,1.9-3.2,3-5.5,3c-1.2,0-2.4-0.3-3.4-0.9
		C380.8,141.2,379.9,140.3,379.3,139.3L379.3,139.3z M361.2,121.7c2.6-0.2,5.2,0.9,7,2.8c1.7,1.9,2.5,4.5,2.5,7.8
		c0.2,2.8-0.8,5.6-2.5,7.8c-3.9,3.8-10,3.8-13.9,0c-1.8-2.2-2.7-4.9-2.5-7.8c0-3.3,0.8-5.9,2.5-7.8
		C356,122.6,358.6,121.5,361.2,121.7z M361.2,125.4c-1.4,0-2.7,0.7-3.4,1.9c-1.7,3-1.7,6.8,0,9.8c1.2,1.9,3.6,2.4,5.5,1.3
		c0.5-0.3,0.9-0.7,1.3-1.3c0.9-1.5,1.4-3.2,1.3-4.9c0.1-1.7-0.4-3.5-1.3-4.9C363.8,126.1,362.5,125.4,361.2,125.4z M343.1,112.6h4.6
		v29.7h-4.6V112.6z M335.4,130.5c0-1.4-0.5-2.8-1.3-4c-0.6-0.9-1.7-1.4-2.8-1.4c-1.1,0-2.2,0.5-2.9,1.4c-0.8,1.2-1.3,2.6-1.4,4
		H335.4z M339.5,132.1v1.6H327c0,1.5,0.7,2.9,1.7,4c1.1,1,2.6,1.5,4.1,1.5c0.9,0,1.8-0.1,2.7-0.4c0.9-0.3,1.7-0.6,2.5-1.1v4
		c-0.9,0.4-1.8,0.7-2.8,0.9c-1.1,0.2-2.1,0.3-3.2,0.3c-2.7,0.2-5.2-0.9-7-2.9c-1.7-1.9-2.5-4.6-2.5-8c-0.1-2.7,0.7-5.4,2.5-7.5
		c1.6-1.9,3.9-2.9,6.4-2.8c2.3-0.1,4.6,0.9,6,2.7C338.8,126.2,339.5,128.7,339.5,132.1L339.5,132.1z M303,122.2h4.9l4.3,15.4
		l4.4-15.4h4.6l-6.5,20.1h-5.3L303,122.2z M297.5,130.5c0-1.4-0.5-2.8-1.3-4c-0.6-0.9-1.7-1.4-2.8-1.4c-1.1,0-2.2,0.5-2.9,1.4
		c-0.8,1.2-1.3,2.6-1.4,4H297.5z M301.6,132.1v1.6h-12.6c0,1.5,0.7,2.9,1.7,4c1.1,1,2.6,1.5,4.1,1.5c0.9,0,1.8-0.1,2.7-0.4
		c0.9-0.2,1.7-0.6,2.5-1.1v4c-0.9,0.4-1.8,0.7-2.8,0.9c-1.1,0.2-2.1,0.3-3.2,0.3c-2.7,0.1-5.2-0.9-7-2.9c-1.7-1.9-2.5-4.6-2.5-8
		c-0.1-2.7,0.7-5.3,2.4-7.4c1.6-1.9,3.9-2.9,6.4-2.8c2.3-0.1,4.6,0.9,6,2.7C300.9,126.2,301.6,128.7,301.6,132.1L301.6,132.1z
		 M260.6,114.8h7c1.8,0,3.6,0.1,5.3,0.5c1.3,0.3,2.5,0.8,3.6,1.5c1.7,1.2,3.1,2.9,3.9,4.8c0.9,2.2,1.4,4.5,1.3,6.9
		c0.1,2.4-0.4,4.7-1.3,6.9c-0.9,1.9-2.3,3.6-4,4.8c-1.1,0.8-2.4,1.3-3.8,1.6c-1.8,0.4-3.6,0.6-5.5,0.5h-6.6L260.6,114.8z
		 M265.4,118.8V138h2.8c2.4,0.1,4.7-0.8,6.3-2.5c1.6-2,2.4-4.5,2.2-7.1c0-3.1-0.7-5.5-2.2-7.1c-1.7-1.7-4.1-2.6-6.5-2.5L265.4,118.8
		z M240.3,112.6h4.6v29.7h-4.6V112.6z M230.5,112.6h4.6v29.7h-4.6V112.6z M220.8,113.2h4.6v5h-4.6V113.2z M220.8,122.2h4.6v20.1
		h-4.6V122.2z M201.6,112.6h4.6v17.6l6-8h5.1l-7,8.6l7.8,11.5h-5.6l-6.4-10.6v10.6h-4.6L201.6,112.6z M196.3,115.5l-0.4,4.3
		c-0.9-0.4-1.8-0.8-2.7-1c-0.9-0.2-1.8-0.3-2.7-0.3c-1.1-0.1-2.1,0.2-3,0.8c-0.7,0.5-1.1,1.3-1.1,2.2c0,1.2,1.3,2.6,3.9,4l0.6,0.3
		c1.9,1,3.6,2.3,5,4c0.9,1.3,1.4,2.9,1.3,4.5c0.1,2.3-0.9,4.6-2.6,6.2c-1.8,1.7-4.3,2.5-6.8,2.4c-2-0.2-3.9-0.7-5.8-1.4
		c-0.3-0.1-0.5-0.2-0.6-0.3l0.4-4.7c1.1,0.6,2.3,1.2,3.4,1.6c0.8,0.3,1.7,0.5,2.5,0.5c1.1,0.1,2.3-0.3,3.1-1
		c0.8-0.6,1.2-1.6,1.2-2.6c0-1.3-1.3-2.8-3.9-4.4l-0.4-0.2l-0.5-0.3c-1.5-0.8-2.9-1.9-4.1-3.2c-0.6-0.7-1-1.5-1.3-2.3
		c-0.3-0.9-0.4-1.8-0.4-2.7c-0.1-2.1,0.8-4.2,2.4-5.6c1.8-1.5,4.1-2.3,6.5-2.2c1.6,0.1,3.1,0.5,4.6,1L196.3,115.5z"/>
	<path class="st4" d="M372.6,164v11.5h-4.4v-10.4c0.1-1.4-0.2-2.7-0.8-3.9c-0.6-0.9-1.5-1.3-2.5-1.3c-1.2,0-2.3,0.6-2.9,1.6
		c-0.8,1.3-1.2,2.9-1.1,4.4v9.6h-4.4v-19.2h4v3.5c0.6-1.2,1.4-2.2,2.5-3c1.1-0.7,2.3-1,3.6-1c1.8-0.1,3.5,0.7,4.6,2.1
		C372.2,159.7,372.8,161.8,372.6,164 M343.4,155.7c2.5-0.1,5,0.9,6.7,2.7c3.2,4.4,3.2,10.4,0,14.9c-3.7,3.6-9.6,3.6-13.3,0
		c-3.2-4.4-3.2-10.4,0-14.9C338.5,156.6,340.9,155.6,343.4,155.7L343.4,155.7z M343.4,159.3c-1.3,0-2.5,0.7-3.2,1.8
		c-1.7,2.9-1.7,6.5,0,9.4c1.2,1.8,3.5,2.3,5.3,1.2c0.5-0.3,0.9-0.7,1.2-1.2c1.6-2.9,1.6-6.5,0-9.4
		C345.9,159.9,344.7,159.3,343.4,159.3L343.4,159.3z M326,147.6h4.4v4.8H326V147.6z M326,156.2h4.4v19.2H326V156.2z M318.4,149.9
		v6.3h4.1v3.6h-4.1v8.4c-0.1,1.1,0.1,2.1,0.6,3.1c0.4,0.6,1.2,1,1.9,0.9c0.3,0,0.5,0,0.8-0.1c0.3-0.1,0.6-0.1,0.9-0.2l0.1,3.5
		c-0.5,0.2-1,0.3-1.5,0.3c-0.5,0.1-1,0.1-1.5,0.1c-1.6,0.2-3.3-0.5-4.4-1.7c-0.9-1.1-1.3-3-1.3-5.6v-8.7h-3.4v-3.6h3.6v-4.7
		L318.4,149.9z M307.8,164.5v11h-3.9l-0.1-3.1c-0.6,1.1-1.5,2-2.5,2.7c-1,0.6-2.1,0.9-3.2,0.9c-1.6,0.1-3.1-0.6-4.2-1.7
		c-1.1-1.2-1.6-2.8-1.6-4.4c-0.1-1.9,0.7-3.7,2.3-4.8c1.5-1.1,3.8-1.6,6.8-1.6h2.3v-0.3c0.1-1.1-0.3-2.2-1.1-3.1
		c-0.8-0.8-2-1.2-3.1-1.1c-0.8,0-1.6,0.2-2.3,0.4c-0.9,0.3-1.7,0.7-2.5,1.2l-0.1-3.5c1-0.4,2-0.8,3-1c1-0.2,2-0.3,3-0.3
		c2.6,0,4.5,0.7,5.6,2.1S307.8,161.5,307.8,164.5z M302,166.3c-1.4-0.1-2.8,0.2-4,0.8c-1.4,0.9-1.8,2.7-0.9,4.1
		c0.1,0.2,0.2,0.3,0.3,0.4c0.5,0.5,1.3,0.8,2,0.8c1.2,0,2.3-0.5,3-1.4c0.8-1.1,1.2-2.4,1.2-3.7v-1L302,166.3z M290.8,155.9l-0.2,4.5
		c-0.2-0.1-0.5-0.2-0.7-0.2c-0.3,0-0.5-0.1-0.8-0.1c-1.3-0.1-2.6,0.5-3.3,1.6c-0.8,1.4-1.2,3.1-1.1,4.7v9h-4.4v-19.3h3.9v3.8
		c0.4-1.2,1.1-2.3,2.1-3.2c0.8-0.7,1.9-1.1,3-1.1c0.2,0,0.4,0,0.7,0C290.1,155.8,290.4,155.9,290.8,155.9z M267.2,155.7
		c2.5-0.1,5,0.9,6.7,2.7c3.2,4.4,3.2,10.4,0,14.9c-3.7,3.6-9.6,3.6-13.3,0c-3.2-4.4-3.2-10.4,0-14.9
		C262.3,156.6,264.7,155.6,267.2,155.7z M267.2,159.3c-1.3,0-2.5,0.7-3.2,1.8c-1.7,2.9-1.7,6.5,0,9.4c1.2,1.8,3.5,2.3,5.3,1.2
		c0.5-0.3,0.9-0.7,1.2-1.2c1.6-2.9,1.6-6.5,0-9.4C269.7,159.9,268.5,159.3,267.2,159.3z M246.6,159.5c-1.3,0-2.5,0.6-3.2,1.7
		c-0.9,1.4-1.3,3-1.2,4.6c-0.1,1.6,0.3,3.2,1.1,4.6c1.1,1.7,3.3,2.2,5,1.1c0.5-0.3,0.9-0.7,1.1-1.1c0.8-1.4,1.2-3,1.1-4.7
		c0.1-1.6-0.3-3.1-1.1-4.5C249,160.2,247.9,159.5,246.6,159.5z M242.2,172.5v10.9h-4.4v-27.2h3.9v3.7c0.6-1.2,1.5-2.3,2.6-3.1
		c2.9-1.9,6.8-1.2,8.9,1.7c1.4,2.1,2.1,4.7,2,7.3c0.1,2.6-0.6,5.2-2,7.4c-1.2,1.8-3.1,2.8-5.2,2.8c-1.2,0-2.3-0.3-3.3-0.9
		C243.7,174.5,242.8,173.6,242.2,172.5L242.2,172.5z M235,155.9l-0.2,4.5c-0.2-0.1-0.5-0.2-0.7-0.2c-0.3,0-0.5-0.1-0.8-0.1
		c-1.3-0.1-2.6,0.5-3.3,1.6c-0.8,1.4-1.2,3.1-1.1,4.7v9h-4.4v-19.2h3.9v3.8c0.4-1.2,1.1-2.3,2.1-3.2c0.8-0.7,1.9-1.1,3-1.1
		c0.2,0,0.4,0,0.7,0C234.4,155.8,234.7,155.9,235,155.9L235,155.9z M211.5,155.7c2.5-0.1,5,0.9,6.7,2.7c3.2,4.4,3.2,10.4,0,14.9
		c-3.7,3.6-9.6,3.6-13.3,0c-3.2-4.4-3.2-10.4,0-14.9C206.6,156.6,209,155.6,211.5,155.7L211.5,155.7z M211.5,159.3
		c-1.3,0-2.5,0.7-3.2,1.8c-1.7,2.9-1.7,6.5,0,9.4c1.2,1.8,3.5,2.3,5.3,1.2c0.5-0.3,0.9-0.7,1.2-1.2c1.6-2.9,1.6-6.5,0-9.4
		C214,159.9,212.8,159.3,211.5,159.3L211.5,159.3z M199.9,149.9l-0.3,4.2l-0.4-0.1c-1.6-0.8-3.3-1.2-5.1-1.4
		c-2.4-0.1-4.6,0.9-6.2,2.7c-1.6,2-2.4,4.6-2.3,7.2c-0.1,2.5,0.7,5,2.4,6.9c1.6,1.8,3.9,2.7,6.3,2.6c1.4-0.1,2.7-0.4,3.9-1
		c0.6-0.2,1.1-0.4,1.4-0.5l0.4,4.2l-1.3,0.4c-1.6,0.6-3.2,0.9-4.8,1c-4,0-7.2-1.2-9.5-3.7c-2.4-2.4-3.5-5.7-3.5-9.9
		c-0.2-3.7,1.1-7.3,3.5-10.1c2.4-2.6,5.8-4,9.3-3.8c1.7,0.1,3.3,0.4,4.9,1L199.9,149.9z"/>
	<path class="st4" d="M371.6,53.9c0.3-0.3,0.5-0.5,0.8-0.9c0.2-0.3,0.5-0.6,0.7-0.9l4,2.3c-0.7,1-1.4,1.9-2.2,2.7
		c-1.4,1.4-3.1,2.6-5,3.4c-3.8,1.6-8.1,1.6-11.9,0c-1.8-0.8-3.5-1.9-5-3.3c-1.4-1.4-2.6-3.1-3.4-4.9c-1.7-3.8-1.7-8.2,0-12
		c1.6-3.7,4.6-6.7,8.3-8.2c3.8-1.7,8.2-1.7,12,0l0.8,0.4c0.3,0.1,0.5,0.3,0.7,0.4l-2.5,3.9c-0.1-0.1-0.3-0.1-0.4-0.2
		c-0.1-0.1-0.3-0.1-0.4-0.2c-0.6-0.3-1.3-0.5-2-0.7c-0.7-0.1-1.4-0.2-2.1-0.2c-1.4,0-2.9,0.3-4.2,0.9c-2.6,1.1-4.7,3.2-5.8,5.8
		c-1.2,2.7-1.2,5.7,0,8.4c0.6,1.3,1.4,2.5,2.4,3.5c1,1,2.2,1.8,3.5,2.3c1.3,0.6,2.8,0.9,4.2,0.8c1.4,0,2.9-0.3,4.2-0.8
		C369.5,55.7,370.6,54.9,371.6,53.9 M311.7,45.7c0-6.5-2.9-9.8-8.7-9.8h-7.4v20.5h7.4C308.8,56.5,311.7,52.9,311.7,45.7L311.7,45.7z
		 M290.9,31.2h10.8c9.8,0,14.8,4.8,14.8,14.4c0,10.3-4.9,15.5-14.7,15.5h-10.9V31.2z M253.7,52.1c0-2.8-1.7-4.3-5.1-4.3h-3.3
		c-6.1,0-9.2-2.9-9.2-8.6c0-5.3,3-8,9.1-8h10.5v4.7h-11.1c-2.7,0-4,1.1-4,3.4c0,2.6,1.3,3.9,4,3.9h3.3c6.8,0,10.3,3,10.3,9
		s-3.4,9-10.3,9h-11.6v-4.7h12.2C252,56.5,253.7,55,253.7,52.1z M200.3,61.2l-15-20.1v20.1h-4.7V31.2h2.9l15,20.1V26.6h4.6v34.6
		H200.3z"/>
	<path class="st2" d="M219.4,41.3c2.2,0,4,1.8,4,4c0,2.2-1.8,4-4,4s-4-1.8-4-4C215.4,43.1,217.2,41.3,219.4,41.3z"/>
	<path class="st6" d="M219.4,41.3c2.2,0,4,1.8,4,4c0,2.2-1.8,4-4,4s-4-1.8-4-4C215.4,43.1,217.2,41.3,219.4,41.3z"/>
	<path class="st3" d="M273.2,41.3c2.2,0,4,1.8,4,4c0,2.2-1.8,4-4,4s-4-1.8-4-4C269.2,43.1,271,41.3,273.2,41.3z"/>
	<path class="st7" d="M273.2,41.3c2.2,0,4,1.8,4,4c0,2.2-1.8,4-4,4s-4-1.8-4-4C269.2,43.1,271,41.3,273.2,41.3z"/>
	<path class="st1" d="M332,41.3c2.2,0,4,1.8,4,4c0,2.2-1.8,4-4,4s-4-1.8-4-4C328,43.1,329.8,41.3,332,41.3z"/>
	<path class="st8" d="M332,41.3c2.2,0,4,1.8,4,4c0,2.2-1.8,4-4,4s-4-1.8-4-4C328,43.1,329.8,41.3,332,41.3z"/>
</g>
</svg>
