<?xml version="1.0" encoding="utf-8"?>
<!-- Generator: Adobe Illustrator 28.2.0, SVG Export Plug-In . SVG Version: 6.00 Build 0)  -->
<svg version="1.1" id="Layer_1" xmlns="http://www.w3.org/2000/svg" xmlns:xlink="http://www.w3.org/1999/xlink" x="0px" y="0px"
	 viewBox="0 0 2500 1465" style="enable-background:new 0 0 2500 1465;" xml:space="preserve">
<style type="text/css">
	.st0{fill:#252F3E;}
	.st1{fill-rule:evenodd;clip-rule:evenodd;fill:#FF9900;}
	.st2{fill:#E8710A;}
	.st3{fill:#F9AB00;}
	.st4{fill:#706D6E;}
	.st5{fill:#F1511B;}
	.st6{fill:#80CC28;}
	.st7{fill:#00ADEF;}
	.st8{fill:#FBBC09;}
	.st9{fill:#77B900;}
	.st10{fill:#0F0F0F;}
	.st11{fill:#44497A;enable-background:new    ;}
	.st12{enable-background:new    ;}
	.st13{fill:#44497A;}
	.st14{fill:#666666;}
	.st15{fill:#232E4A;}
</style>
<path class="st4" d="M2412.1,1057v-56.6h-70.2v-87.9l-2.4,0.7l-66,20.2l-1.3,0.4v66.6H2168v-37.1c0-17.3,3.9-30.5,11.5-39.3
	c7.6-8.7,18.4-13.1,32.2-13.1c9.9,0,20.2,2.3,30.5,6.9l2.6,1.2v-59.6l-1.2-0.4c-9.6-3.5-22.8-5.2-39-5.2c-20.5,0-39.1,4.5-55.3,13.3
	c-16.2,8.8-29,21.5-38,37.5c-8.9,16-13.4,34.6-13.4,55.1v40.8h-48.9v56.6h48.9v238.3h70.2V1057h104.1v151.4c0,62.4,29.4,94,87.4,94
	c9.5,0,19.6-1.1,29.8-3.3c10.4-2.2,17.5-4.5,21.7-6.9l0.9-0.5v-57.1l-2.9,1.9c-3.8,2.5-8.6,4.6-14.1,6.2c-5.6,1.6-10.3,2.4-13.9,2.4
	c-13.6,0-23.6-3.7-29.9-10.9c-6.3-7.3-9.5-20-9.5-37.9V1057H2412.1L2412.1,1057z M1892.1,1245c-25.5,0-45.6-8.5-59.7-25.1
	c-14.2-16.7-21.5-40.6-21.5-70.9c0-31.3,7.2-55.7,21.5-72.8c14.2-16.9,34.1-25.5,59.2-25.5c24.3,0,43.7,8.2,57.6,24.4
	c14,16.3,21,40.5,21,72.2c0,32-6.7,56.6-19.8,73.1C1937.3,1236.7,1917.7,1245,1892.1,1245 M1895.2,993.3
	c-48.6,0-87.2,14.2-114.8,42.3c-27.5,28.1-41.5,67-41.5,115.6c0,46.2,13.6,83.3,40.5,110.4c26.9,27.1,63.4,40.8,108.7,40.8
	c47.1,0,85-14.4,112.5-42.9c27.5-28.5,41.5-67,41.5-114.5c0-46.9-13.1-84.3-38.9-111.2C1977.4,1007,1941,993.3,1895.2,993.3
	 M1625.7,993.3c-33.1,0-60.4,8.5-81.3,25.1c-21,16.8-31.7,38.8-31.7,65.4c0,13.8,2.3,26.1,6.8,36.6c4.6,10.5,11.6,19.7,21,27.4
	c9.3,7.7,23.7,15.7,42.7,23.9c16,6.6,27.9,12.1,35.5,16.5c7.4,4.3,12.7,8.6,15.6,12.8c2.9,4.1,4.3,9.8,4.3,16.7
	c0,19.8-14.8,29.5-45.4,29.5c-11.3,0-24.2-2.4-38.4-7c-14-4.6-27.3-11.3-39.3-19.9l-2.9-2.1v67.6l1.1,0.5
	c9.9,4.6,22.5,8.5,37.2,11.5c14.7,3,28.1,4.6,39.8,4.6c35.9,0,64.8-8.5,85.9-25.3c21.2-16.9,32-39.4,32-67
	c0-19.9-5.8-36.9-17.2-50.7c-11.3-13.6-31-26.2-58.5-37.2c-21.9-8.8-35.9-16.1-41.6-21.7c-5.6-5.4-8.4-13-8.4-22.7
	c0-8.6,3.5-15.4,10.7-21c7.2-5.6,17.3-8.4,29.9-8.4c11.7,0,23.7,1.8,35.6,5.5c11.9,3.6,22.3,8.5,31.1,14.4l2.9,2v-64.1l-1.1-0.5
	c-8-3.5-18.7-6.4-31.5-8.8C1647.5,994.5,1635.9,993.3,1625.7,993.3 M1329.7,1245c-25.5,0-45.6-8.5-59.7-25.1
	c-14.3-16.7-21.5-40.6-21.5-70.9c0-31.3,7.2-55.7,21.5-72.8c14.2-16.9,34.1-25.5,59.2-25.5c24.3,0,43.7,8.2,57.6,24.4
	c14,16.3,21,40.5,21,72.2c0,32-6.7,56.6-19.8,73.1C1374.9,1236.7,1355.3,1245,1329.7,1245 M1332.8,993.3
	c-48.6,0-87.3,14.2-114.8,42.3c-27.5,28.1-41.5,67-41.5,115.6c0,46.2,13.6,83.3,40.5,110.4c26.9,27.1,63.4,40.8,108.7,40.8
	c47.1,0,85-14.4,112.5-42.9c27.5-28.5,41.5-67,41.5-114.5c0-46.9-13.1-84.3-38.9-111.2C1414.9,1007,1378.6,993.3,1332.8,993.3
	 M1069.9,1051.5v-51.1h-69.4v294.9h69.4v-150.8c0-25.6,5.8-46.7,17.3-62.6c11.3-15.7,26.4-23.7,44.9-23.7c6.2,0,13.3,1,20.9,3.1
	c7.5,2,13,4.2,16.2,6.5l2.9,2.1v-69.9l-1.1-0.5c-6.5-2.7-15.6-4.1-27.2-4.1c-17.4,0-33,5.6-46.4,16.6c-11.7,9.7-20.2,23-26.7,39.6
	H1069.9z M876.4,993.3c-31.8,0-60.2,6.8-84.3,20.3c-24.2,13.5-42.9,32.7-55.6,57.2c-12.7,24.4-19.1,52.9-19.1,84.7
	c0,27.9,6.2,53.4,18.6,76c12.3,22.6,29.8,40.2,51.9,52.5c22.1,12.2,47.6,18.4,75.8,18.4c33,0,61.1-6.6,83.7-19.6l0.9-0.5v-63.5
	l-2.9,2.1c-10.2,7.4-21.6,13.4-33.9,17.7c-12.3,4.3-23.4,6.4-33.2,6.4c-27.2,0-49.1-8.5-64.9-25.3c-15.9-16.8-24-40.4-24-70.1
	c0-29.9,8.4-54.1,25-72c16.5-17.8,38.4-26.8,65.1-26.8c22.8,0,45,7.7,66,23l2.9,2.1v-67l-0.9-0.5c-7.9-4.4-18.7-8.1-32.1-10.9
	C901.8,994.7,888.7,993.3,876.4,993.3 M669.5,1000.4h-69.4v294.9h69.4C669.5,1295.3,669.5,1000.4,669.5,1000.4z M635.5,874.8
	c-11.4,0-21.4,3.9-29.6,11.6c-8.2,7.7-12.4,17.4-12.4,28.9c0,11.3,4.1,20.8,12.3,28.4c8.1,7.5,18.1,11.3,29.7,11.3
	c11.6,0,21.6-3.8,29.8-11.3c8.2-7.5,12.4-17.1,12.4-28.4c0-11.1-4.1-20.7-12.1-28.6C657.7,878.8,647.5,874.8,635.5,874.8
	 M462.4,978.7v316.6h70.8V883.8h-98l-124.5,305.6L189.9,883.8h-102v411.5h66.5V978.7h2.3l127.6,316.7h50.2l125.6-316.6L462.4,978.7
	L462.4,978.7z"/>
<g>
	<path class="st5" d="M1273.9,365.3H936.3V27.6h337.7V365.3z"/>
	<path class="st6" d="M1646.8,365.3h-337.7V27.6h337.7L1646.8,365.3L1646.8,365.3z"/>
	<path class="st7" d="M1273.9,738.3H936.3V400.6h337.7V738.3z"/>
	<path class="st8" d="M1646.8,738.3h-337.7V400.6h337.7L1646.8,738.3L1646.8,738.3z"/>
</g>
</svg>
