<?xml version="1.0" encoding="utf-8"?>
<!-- Generator: Adobe Illustrator 28.2.0, SVG Export Plug-In . SVG Version: 6.00 Build 0)  -->
<svg version="1.1" id="Layer_1" xmlns="http://www.w3.org/2000/svg" xmlns:xlink="http://www.w3.org/1999/xlink" x="0px" y="0px"
	 viewBox="0 0 2500 1465" style="enable-background:new 0 0 2500 1465;" xml:space="preserve">
<style type="text/css">
	.st0{fill:#252F3E;}
	.st1{fill-rule:evenodd;clip-rule:evenodd;fill:#FF9900;}
	.st2{fill:#E8710A;}
	.st3{fill:#F9AB00;}
	.st4{fill:#706D6E;}
	.st5{fill:#F1511B;}
	.st6{fill:#80CC28;}
	.st7{fill:#00ADEF;}
	.st8{fill:#FBBC09;}
	.st9{fill:#77B900;}
	.st10{fill:#0F0F0F;}
	.st11{fill:#44497A;enable-background:new    ;}
	.st12{enable-background:new    ;}
	.st13{fill:#44497A;}
	.st14{fill:#666666;}
	.st15{fill:#232E4A;}
</style>
<g>
	<path d="M2195,1393.5c0,20.6-15.1,34.4-33,34.4v-0.1c-18.4,0.1-33.2-13.7-33.2-34.2c0-20.6,14.8-34.3,33.2-34.3
		C2179.9,1359.2,2195,1372.9,2195,1393.5L2195,1393.5z M2208.3,1393.5c0-28.2-21.9-44.6-46.4-44.6c-24.6,0-46.5,16.4-46.5,44.6
		c0,28.2,21.9,44.7,46.5,44.7C2186.4,1438.1,2208.3,1421.7,2208.3,1393.5 M2154.3,1397.3h5l11.5,20.2h12.6l-12.7-21
		c6.6-0.5,12-3.6,12-12.5c0-11-7.6-14.5-20.5-14.5h-18.6v48.1h10.7L2154.3,1397.3 M2154.3,1389.1v-11.6h7.4c4,0,9.6,0.3,9.6,5.3
		c0,5.4-2.9,6.3-7.6,6.3H2154.3 M1896.2,1147.6l57.8,158.1h-117.4L1896.2,1147.6L1896.2,1147.6z M1834.3,1086.1l-133.2,337.5h94
		l21.1-59.6h157.6l19.9,59.6h102.1L1961.7,1086L1834.3,1086.1L1834.3,1086.1z M1566.9,1423.6h95.4V1086l-95.4,0L1566.9,1423.6z
		 M904.5,1085.9l-79.6,267.6L748.6,1086l-103,0l108.9,337.7H892l109.8-337.7H904.5L904.5,1085.9z M1290.2,1159.5h41
		c59.5,0,98,26.7,98,96c0,69.3-38.5,96-98,96h-41V1159.5L1290.2,1159.5z M1195.5,1085.9v337.7h154.7c82.4,0,109.3-13.7,138.4-44.4
		c20.6-21.6,33.8-68.9,33.8-120.7c0-47.5-11.3-89.8-30.9-116.2c-35.3-47.2-86.3-56.4-162.2-56.4H1195.5z M291.7,1085.5v338.2h96.2
		v-256.8l74.6,0c24.7,0,42.3,6.2,54.2,18.9c15.1,16.1,21.2,42,21.2,89.4v148.5h93.2v-186.8c0-133.4-85-151.3-168.2-151.3H291.7
		L291.7,1085.5z M1042,1085.9l0,337.7h95.4v-337.7H1042z"/>
	<path class="st9" d="M548.1,413.5c0,0,122.7-181.1,367.8-199.8V148c-271.4,21.8-506.4,251.7-506.4,251.7s133.1,384.8,506.4,420.1
		v-69.8C641.9,715.5,548.1,413.5,548.1,413.5z M915.9,611.1v64c-207.1-36.9-264.5-252.2-264.5-252.2s99.4-110.1,264.5-128V365
		c-0.1,0-0.2,0-0.3,0c-86.7-10.4-154.4,70.6-154.4,70.6S799.1,571.8,915.9,611.1 M915.9,26.9V148c8-0.6,15.9-1.1,23.9-1.4
		c308.6-10.4,509.6,253.1,509.6,253.1s-230.9,280.8-471.5,280.8c-22,0-42.7-2-62.1-5.5v74.9c17.1,2.2,34.4,3.3,51.7,3.3
		c223.9,0,385.8-114.3,542.5-249.6c26,20.8,132.4,71.5,154.3,93.6C1515.3,722,1167.9,822.6,971,822.6c-19,0-37.2-1.2-55.1-2.9V925
		h850.9V26.9L915.9,26.9L915.9,26.9z M915.9,294.9v-81.1c7.9-0.6,15.8-1,23.9-1.2c221.9-7,367.5,190.7,367.5,190.7
		S1150,621.5,981.5,621.5c-24.3,0-46-3.9-65.6-10.5V365c86.4,10.4,103.8,48.6,155.7,135.2l115.5-97.4c0,0-84.3-110.6-226.4-110.6
		C945.2,292.2,930.4,293.3,915.9,294.9"/>
</g>
</svg>
